<?xml version="1.0" encoding="utf-8"?>
<!-- Generator: Adobe Illustrator 26.2.1, SVG Export Plug-In . SVG Version: 6.00 Build 0)  -->
<svg version="1.1" id="Layer_1" xmlns="http://www.w3.org/2000/svg" xmlns:xlink="http://www.w3.org/1999/xlink" x="0px" y="0px"
	 viewBox="0 0 24 24" style="enable-background:new 0 0 24 24;" xml:space="preserve">
<style type="text/css">
	.st0{fill:#FFFFFF;}
</style>
<g>
	<path class="st0" d="M22.01,18.71c-1.36-0.91-3.71-0.64-7.22,0.59c0,0,0,0-2.34-1.05c0,0,0,0,1.47-0.15
		c1.27-0.17,1.86-1.01,1.89-1.73c-0.03-0.6-0.42-1.37-1.51-1.57c-1.47-0.36-4.84-0.11-5.05-0.13c0,0-0.09,0.03-0.18,0.07
		c0,0-0.01,0.01-4.32,1.64c0.01-0.27,0.02-0.54,0.03-0.84c0.01-0.29-0.17-0.58-0.56-0.59c0,0,0,0-3.43-0.11
		c-0.28-0.01-0.58,0.27-0.59,0.56c0,0,0,0-0.21,6.86c-0.01,0.39,0.27,0.58,0.56,0.59c0,0,0,0,3.43,0.11
		c0.39,0.01,0.58-0.17,0.59-0.56c0,0,0-0.01,0.15-4.77c0.18-0.07,1.01-0.38,4.77-1.8c0.99-0.07,3.52-0.11,4.62,0.09
		c0.34,0.07,0.49,0.22,0.6,0.49c-0.02,0.21-0.35,0.43-0.92,0.55c0,0,0,0-3.48,0.5c-0.3,0.01-0.44,0.17-0.53,0.5
		c-0.02,0.22,0.17,0.45,0.33,0.59c0,0,0,0,4.4,1.9c0.16,0.15,0.33,0.08,0.42,0.05c4.19-1.59,5.78-1.17,6.39-0.9
		c0.04,0.1,0.16,0.15,0.19,0.24c0,0,0,0-7.85,2.97c-1.48-0.67-5.66-2.55-5.66-2.55c-0.12-0.05-0.33-0.08-0.42-0.04c0,0,0,0-1.7,0.64
		c-0.26,0.1-0.43,0.47-0.33,0.74C5.69,21.92,6.02,22,6.29,21.9c0,0,0,0,1.43-0.54c0.98,0.44,4.68,2.11,5.66,2.55
		c0.16,0.14,0.33,0.08,0.42,0.04c0,0,0,0,8.65-3.28c0.26-0.1,0.42-0.26,0.4-0.56C22.82,20.03,22.82,19.22,22.01,18.71z M3.46,21.77
		c0,0,0,0-2.29-0.07c0,0,0,0,0.18-5.72l2.29,0.07C3.63,16.05,3.63,16.05,3.46,21.77z"/>
	<path class="st0" d="M23.86,4.79c0,0,0,0-3.43-4.58C20.42,0.2,20.4,0.2,20.38,0.18c-0.07-0.07-0.15-0.13-0.25-0.16
		c-0.12-0.03-0.23-0.02-0.33,0c-0.4,0-1.91,0-7.69,0c-0.09-0.02-0.18-0.03-0.27,0c-0.03,0.01-0.06,0.03-0.08,0.04
		c-0.09,0.04-0.18,0.09-0.3,0.14c0,0,0,0-3.43,4.58C8.01,4.83,7.99,4.88,7.98,4.92c0,0.01,0,0.02-0.01,0.02c0,0,0,0.01,0,0.01
		C7.95,5.02,7.93,5.09,7.93,5.18c0,0.16,0.1,0.32,0.23,0.43c0.19,0.22,1.27,1.46,7.35,8.48c0.01,0.01,0.02,0.02,0.02,0.03
		c0.01,0.01,0.02,0.02,0.02,0.03c0.01,0.01,0.01,0.01,0.02,0.02c0.03,0.03,0.06,0.05,0.09,0.08c0.03,0.02,0.06,0.03,0.09,0.05
		c0.06,0.03,0.13,0.05,0.18,0.05c0.02,0,0.03,0,0.05,0c0.02,0,0.03,0,0.05,0c0.12,0,0.27-0.08,0.38-0.18c0,0,0.01,0,0.01-0.01
		c0,0,0,0,0.02-0.03c0.01-0.01,0.02-0.02,0.02-0.03c0.21-0.24,1.33-1.54,7.39-8.53C24.05,5.27,24.05,4.98,23.86,4.79z M13.56,4.6
		c-0.11-0.44-0.35-1.39-0.86-3.44c0.68,0,2.37,0,6.48,0c-0.14,0.58-0.4,1.62-0.86,3.44C17.07,4.6,15.51,4.6,13.56,4.6z M17.99,5.75
		c-0.27,0.83-0.83,2.57-2.01,6.21c-0.37-1.11-1.01-3.02-2.07-6.21C15.02,5.75,16.37,5.75,17.99,5.75z M12.34,4.6
		c-0.84,0-1.75,0-2.72,0l2.04-2.7C11.81,2.48,12.02,3.34,12.34,4.6z M12.64,5.75c0.19,0.55,0.66,1.93,1.85,5.38
		c-0.89-1.03-2.33-2.7-4.64-5.38C10.46,5.75,11.34,5.75,12.64,5.75z M19.25,5.75c0.89,0,1.84,0,2.88,0
		c-0.63,0.72-1.94,2.22-4.64,5.3C17.88,9.84,18.45,8.14,19.25,5.75z M19.54,4.6c0.12-0.48,0.33-1.31,0.68-2.72
		c0.38,0.49,1.03,1.33,2.12,2.72C21.78,4.6,20.9,4.6,19.54,4.6z"/>
</g>
</svg>
