<?xml version="1.0" encoding="utf-8"?>
<!-- Generator: Adobe Illustrator 26.2.1, SVG Export Plug-In . SVG Version: 6.00 Build 0)  -->
<svg version="1.1" id="Layer_1" xmlns="http://www.w3.org/2000/svg" xmlns:xlink="http://www.w3.org/1999/xlink" x="0px" y="0px"
	 viewBox="0 0 24 24" style="enable-background:new 0 0 24 24;" xml:space="preserve">
<style type="text/css">
	.st0{fill:#FFFFFF;}
</style>
<g>
	<path class="st0" d="M21.08,18c0,0-0.01,0-5.17-1.5c0.82-0.82,1.45-1.86,1.58-3.07c0.75-0.25,1.33-1,1.5-1.75
		c0.16-0.75,0-1.5-0.5-1.91c0,0,0-0.01,0-0.67c0,0,0,0,0.5-2V7.02c0,0,0,0,0-5.5c0-0.17-0.09-0.34-0.25-0.42
		c-0.08-0.08-0.33-0.08-0.5,0c0,0,0,0-3.16,1.75c0,0,0,0-2.67-2.67c-0.25-0.25-0.5-0.25-0.75,0c0,0,0,0-2.75,2.67c0,0,0,0-3.16-1.75
		c-0.09-0.08-0.34-0.08-0.5,0C5.18,1.19,5,1.35,5,1.52c0,0,0,0,0,5.5c0,0.12,0.06,0.24,0.15,0.33c0.06,0.23,0.17,0.69,0.38,1.54
		C5.52,8.93,5.5,8.97,5.5,9.01c0,0,0,0,0,0.76c-0.41,0.41-0.58,1.16-0.41,1.99c0.25,0.84,0.75,1.5,1.41,1.67
		c0.13,1.21,0.77,2.25,1.58,3.07c-0.76,0.23-2.23,0.66-5.08,1.5c0,0,0,0-0.09,0c-1.66,0.67-2.91,3.08-2.91,5c0,0,0,0,0,0.49
		c0,0.25,0.25,0.5,0.5,0.5c0,0,0,0,22.98,0c0.34,0,0.5-0.25,0.5-0.5c0,0,0,0,0-0.49C23.99,21.09,22.82,18.67,21.08,18z M6.01,2.35
		c0,0,0,0,2.75,1.58C9,4.02,9.26,4.02,9.42,3.85c0,0,0,0,2.58-2.67c0,0,0,0,2.66,2.67c0.17,0.16,0.42,0.16,0.58,0.08
		c0,0,0,0,2.75-1.58c0,0,0,0,0,4.57c0,0,0,0.01-0.3,1.39C16.83,8.03,14.95,7.51,12,7.51c-2.94,0-4.79,0.52-5.63,0.81
		C6.3,8.03,6.19,7.57,6.01,6.85C6.01,6.51,6.01,5.48,6.01,2.35z M7.5,13.01c0-0.25-0.16-0.49-0.5-0.49c-0.49,0-0.83-0.58-0.91-1
		c-0.16-0.5-0.08-0.91,0.16-1.08c0.16-0.09,0.25-0.25,0.25-0.42c0,0,0,0,0-0.68C7.13,9.1,8.99,8.52,12,8.52
		c2.93,0,4.78,0.53,5.49,0.78c0,0.15,0,0.37,0,0.71c0,0.16,0.17,0.33,0.34,0.42c0.16,0.16,0.25,0.58,0.16,1.08
		c-0.08,0.42-0.41,1-1,1c-0.25,0-0.5,0.25-0.5,0.49c0,2.58-3.17,4.5-4.49,4.5c-0.64,0-1.7-0.45-2.64-1.19
		c-0.01,0-0.01-0.01-0.02-0.02C8.35,15.49,7.5,14.34,7.5,13.01z M1.01,23c0-1.5,1-3.5,2.33-4c0,0,0.01,0,5.63-1.75
		c1.09,0.8,2.28,1.25,3.03,1.25c0.75,0,1.96-0.46,3.05-1.26c0.43,0.13,1.74,0.54,5.69,1.77c1.33,0.5,2.25,2.49,2.25,4
		C22.99,23,22.99,23,1.01,23z"/>
	<path class="st0" d="M9.5,10.52c0.16,0,0.25,0,0.42,0c0,0,0,0,0.08,0c0,0,0,0,0.16,0c0.08,0,0.25,0,0.33,0
		c0,0.25,0.25,0.49,0.5,0.49c0.34,0,0.5-0.25,0.5-0.49c0-0.34-0.08-0.58-0.25-0.75C11,9.51,10.58,9.51,10.17,9.51c0,0,0,0-0.16,0
		c0,0,0,0-0.08,0c-0.42,0-0.84,0-1.09,0.25C8.67,9.93,8.5,10.18,8.5,10.52c0,0.25,0.25,0.49,0.5,0.49
		C9.34,11.01,9.5,10.76,9.5,10.52z"/>
	<path class="st0" d="M13,11.01c0.33,0,0.5-0.25,0.5-0.49c0.16,0,0.25,0,0.41,0c0,0,0,0,0.08,0c0,0,0,0,0.17,0c0.08,0,0.25,0,0.33,0
		c0,0.25,0.25,0.49,0.5,0.49c0.33,0,0.5-0.25,0.5-0.49c0-0.34-0.09-0.58-0.25-0.75C15,9.51,14.58,9.51,14.17,9.51c0,0,0,0-0.17,0
		c0,0,0,0-0.08,0c-0.41,0-0.83,0-1.08,0.25c-0.17,0.16-0.34,0.41-0.34,0.75C12.5,10.76,12.75,11.01,13,11.01z"/>
</g>
</svg>
