<?xml version="1.0" encoding="utf-8"?>
<!-- Generator: Adobe Illustrator 26.2.1, SVG Export Plug-In . SVG Version: 6.00 Build 0)  -->
<svg version="1.1" id="Layer_1" xmlns="http://www.w3.org/2000/svg" xmlns:xlink="http://www.w3.org/1999/xlink" x="0px" y="0px"
	 viewBox="0 0 24 24" style="enable-background:new 0 0 24 24;" xml:space="preserve">
<style type="text/css">
	.st0{fill:#FFFFFF;}
</style>
<g>
	<path class="st0" d="M12,2c-1.09,0-2,0.83-2,2c0,1.08,0.91,2,2,2c1.16,0,1.99-0.92,1.99-2C14,2.84,13.17,2,12,2z M12,7
		c-1.59,0-3-1.42-3-3c0-1.67,1.42-3,3-3c1.66,0,3,1.33,3,3C15,5.59,13.67,7,12,7z"/>
	<path class="st0" d="M19,4c-0.5,0-1,0.41-1,1c0,0.5,0.5,1,1,1c0.58,0,1-0.5,1-1C20,4.42,19.58,4,19,4z M19,7c-1.09,0-2-0.91-2-2
		c0-1.16,0.91-2,2-2C20.16,3,21,3.84,21,5C21,6.09,20.16,7,19,7z"/>
	<path class="st0" d="M5,4C4.5,4,4,4.42,4,5c0,0.5,0.5,1,1,1c0.58,0,1-0.5,1-1C6,4.42,5.58,4,5,4z M5,7C3.92,7,3,6.09,3,5
		C3,3.84,3.92,3,5,3c1.17,0,2,0.84,2,2C7,6.09,6.17,7,5,7z"/>
	<path class="st0" d="M23.08,20.5 M12,23c-1.17,0-12-0.08-12-2.5c0-1.17,2.34-1.92,6.92-2.34c0.34,0,0.58,0.16,0.58,0.5
		c0,0.25-0.16,0.5-0.5,0.5c-4.25,0.33-5.66,1-5.91,1.33C1.59,21,5.42,22,12,22c6.58,0,10.5-1,10.99-1.5c-0.25-0.34-1.75-1-5.99-1.33
		c-0.25,0-0.5-0.25-0.5-0.5c0.08-0.34,0.33-0.5,0.58-0.5C21.66,18.59,24,19.34,24,20.5C24,22.92,13.25,23,12,23z"/>
	<path class="st0" d="M10,17C14,17,14,17,14,17C14,11,14,11,14,11c0-1.17-0.83-2-1.99-2c-1.09,0-2,0.83-2,2V17z M14.5,18
		c-5,0-5,0-5,0C9.25,18,9,17.75,9,17.5C9,11,9,11,9,11c0-1.67,1.42-3,3-3c1.66,0,3,1.33,3,3c0,6.5,0,6.5,0,6.5
		C15,17.75,14.84,18,14.5,18z"/>
	<path class="st0" d="M18,15c2,0,2,0,2,0C20,10,20,10,20,10c0-0.58-0.42-1-1-1c-0.5,0-1,0.42-1,1V15z M20.5,16c-3,0-3,0-3,0
		c-0.25,0-0.5-0.25-0.5-0.5c0-5.5,0-5.5,0-5.5c0-1.16,0.91-1.99,2-1.99C20.16,8.01,21,8.84,21,10c0,5.5,0,5.5,0,5.5
		C21,15.75,20.83,16,20.5,16z"/>
	<path class="st0" d="M4,15c2,0,2,0,2,0C6,10,6,10,6,10c0-0.58-0.42-1-1-1c-0.5,0-1,0.42-1,1V15z M6.5,16c-3,0-3,0-3,0
		C3.25,16,3,15.75,3,15.5C3,10,3,10,3,10C3,8.84,3.92,8.01,5,8.01c1.17,0,2,0.83,2,1.99c0,5.5,0,5.5,0,5.5C7,15.75,6.83,16,6.5,16z"
		/>
</g>
</svg>
