<?xml version="1.0" encoding="utf-8"?>
<!-- Generator: Adobe Illustrator 26.2.1, SVG Export Plug-In . SVG Version: 6.00 Build 0)  -->
<svg version="1.1" id="Layer_1" xmlns="http://www.w3.org/2000/svg" xmlns:xlink="http://www.w3.org/1999/xlink" x="0px" y="0px"
	 viewBox="0 0 24 24" style="enable-background:new 0 0 24 24;" xml:space="preserve">
<style type="text/css">
	.st0{fill:#FFFFFF;}
</style>
<g>
	<path class="st0" d="M1.43,12.51c0,0,0,0,5.37,0c0,0,0,0,0,0.17c0.08,0.59,0.17,1.26,0.25,1.93c0.34-0.17,0.67-0.25,1.01-0.25
		c-0.09-0.59-0.17-1.18-0.26-1.68c0,0,0,0,0-0.17c0,0,0,0,6.38,0c0-0.17,0-0.33,0-0.51c0-0.17,0-0.33,0-0.5c0,0,0,0-6.38,0
		c0,0,0,0,0-0.09c0-1.76,0.34-3.43,0.93-5.12c0,0,0,0,0.08-0.08c0,0,0,0,6.79,0c0,0,0,0,0,0.08c0.42,0.92,0.67,1.93,0.84,2.85
		c0.17,0,0.42,0,0.58,0c0.17,0,0.26,0,0.42,0c-0.17-0.92-0.42-1.84-0.67-2.77c0,0,0,0-0.08-0.17c0,0,0,0,4.78,0c0,0,0,0,0,0.08
		c0.92,1.51,1.43,3.28,1.51,5.12c0,0,0,0,0,0.09c0,0,0,0-3.11,0c0,0.17,0.09,0.33,0.09,0.5c0,0.17-0.09,0.34-0.09,0.51
		c0,0,0,0,3.11,0c0,0,0,0,0,0.17c-0.17,1.34-0.51,2.6-1.01,3.78c0,0,0,0-0.08,0.08c0,0,0,0-5.03,0c0,0,0,0,0-0.17
		c0.17-0.51,0.26-1.01,0.42-1.52c-0.08,0-0.17,0-0.26,0c-0.25,0-0.5,0-0.84-0.08c-0.08,0.59-0.25,1.09-0.42,1.68c0,0,0,0,0,0.08
		c0,0,0,0-4.62,0c0.08,0.25,0.08,0.42,0.08,0.67c0,0.17,0,0.25,0,0.33c0,0,0,0,4.11,0c0,0,0,0,0,0.17
		c-0.76,1.68-1.68,3.36-2.94,5.04c0,0,0,0,0,0.08c0,0,0,0-0.08,0s-0.08,0-0.08,0c-0.09,0-0.09,0-0.17,0c0,0,0,0-0.08,0
		c0,0,0,0-0.08-0.08c-0.75-1.01-1.43-2.1-1.93-3.11c-0.33,0.17-0.67,0.34-1,0.42c0.42,0.75,0.92,1.59,1.51,2.43c0,0,0,0,0.08,0.17
		c0,0,0,0-0.25,0c-2.94-0.51-5.62-2.35-7.22-4.96c0,0,0,0-0.17-0.17c0,0,0,0,2.52,0c0-0.08,0-0.17,0-0.33
		c0-0.26,0.08-0.42,0.08-0.67c0,0,0,0-3.1,0c0,0,0,0-0.09-0.08c-0.5-1.18-0.84-2.52-0.92-3.78V12.51z M13.77,22.66
		c0,0,0,0,0.17-0.17c1.09-1.59,1.93-3.19,2.52-4.87c0,0,0,0,0-0.08c0,0,0,0,4.95,0c0,0,0,0-0.08,0.17c-1.68,2.6-4.29,4.45-7.31,4.96
		H13.77z M20.73,5.21c0,0,0,0-4.45,0c0,0,0,0,0-0.09c-0.59-1.25-1.25-2.43-2.18-3.52c0,0,0,0-0.17-0.25c0,0,0,0,0.25,0.08
		c2.52,0.42,4.78,1.68,6.38,3.61L20.73,5.21z M15.11,5.03c0,0,0,0,0.08,0.17c0,0,0,0-5.96,0c0,0,0,0,0.08-0.17
		c0.67-1.34,1.52-2.6,2.6-3.77c0,0,0,0,0.17,0c0.08-0.08,0.17-0.08,0.26,0c0,0,0,0,0.08,0c0,0,0,0,0.08,0
		C13.51,2.44,14.44,3.69,15.11,5.03z M0.84,8.73c-0.33,1-0.5,2.1-0.5,3.27c0,6.29,4.95,11.5,11.25,11.83c0,0,0,0,1.25,0
		C19.13,23.5,24,18.21,24,11.75c0-6.29-4.87-11.33-11.33-11.58c-0.17,0-0.33,0-0.51,0c-2.68,0-5.2,0.93-7.22,2.44
		c0.34,0.25,0.59,0.51,0.84,0.75c1.26-1,2.77-1.68,4.37-1.93c0,0,0,0,0.33-0.08c0,0,0,0-0.25,0.25c-0.84,1.09-1.6,2.27-2.1,3.52
		c0,0,0,0-0.08,0.09c0,0,0,0-1.52,0c0,0.17,0,0.33,0,0.42c0,0.26,0,0.42,0,0.59c0,0,0,0,1.09,0c0,0,0,0,0,0.17
		C7.05,7.98,6.8,9.65,6.8,11.41c0,0,0,0,0,0.09c0,0,0,0-5.37,0c0,0,0,0,0-0.09c0-0.75,0.17-1.51,0.34-2.26
		C1.43,9.06,1.09,8.9,0.84,8.73z"/>
	<path class="st0" d="M15.95,12c0-0.59,0.51-1.09,1.09-1.09c0.59,0,1.09,0.5,1.09,1.09c0,0.59-0.51,1.09-1.09,1.09
		C16.45,13.09,15.95,12.59,15.95,12z M14.94,12c0,1.18,0.93,2.1,2.1,2.1c1.18,0,2.1-0.92,2.1-2.1c0-1.17-0.92-2.1-2.1-2.1
		C15.86,9.9,14.94,10.83,14.94,12z"/>
	<path class="st0" d="M7.3,17.21c0-0.59,0.42-1.09,1.09-1.09c0.59,0,1.09,0.51,1.09,1.09c0,0.59-0.51,1.09-1.09,1.09
		C7.72,18.29,7.3,17.8,7.3,17.21z M6.29,17.21c0,1.17,0.92,2.1,2.1,2.1c1.09,0,2.1-0.93,2.1-2.1c0-1.18-1-2.1-2.1-2.1
		C7.22,15.11,6.29,16.03,6.29,17.21z"/>
	<path class="st0" d="M4.78,5.62c0,1.09-0.84,1.93-1.93,1.93C1.85,7.55,1,6.72,1,5.62c0-1,0.84-1.84,1.85-1.84
		C3.95,3.78,4.78,4.62,4.78,5.62z M5.79,5.62c0-1.59-1.34-2.85-2.94-2.85C1.26,2.77,0,4.03,0,5.62c0,1.59,1.26,2.94,2.85,2.94
		C4.45,8.56,5.79,7.22,5.79,5.62z"/>
</g>
</svg>
