<?xml version="1.0" encoding="utf-8"?>
<!-- Generator: Adobe Illustrator 26.2.1, SVG Export Plug-In . SVG Version: 6.00 Build 0)  -->
<svg version="1.1" id="Layer_1" xmlns="http://www.w3.org/2000/svg" xmlns:xlink="http://www.w3.org/1999/xlink" x="0px" y="0px"
	 viewBox="0 0 24 24" style="enable-background:new 0 0 24 24;" xml:space="preserve">
<style type="text/css">
	.st0{fill:#FFFFFF;}
</style>
<g>
	<path class="st0" d="M23.81,20.16c0,0,0,0-3.54-6.03c0.77-1.37,1.21-2.95,1.21-4.63c0-5.25-4.25-9.5-9.49-9.5
		c-5.17,0-9.5,4.25-9.5,9.5c0,1.64,0.42,3.19,1.17,4.53c-0.3,0.52-1.16,1.98-3.59,6.13c-0.08,0.17-0.08,0.42,0,0.58
		c0.17,0.16,0.34,0.25,0.5,0.16c0,0,0,0,3.5-0.58c0,0,0,0,1.17,3.33c0.08,0.17,0.25,0.25,0.42,0.34c0,0,0,0,0.08,0
		c0.16,0,0.33-0.09,0.41-0.25c0,0,0,0,3.06-5.17c0.88,0.27,1.82,0.42,2.78,0.42c0.94,0,1.85-0.14,2.71-0.39
		c0.31,0.53,1.09,1.85,3.04,5.14c0.08,0.17,0.25,0.25,0.41,0.25h0.09c0.16-0.09,0.33-0.17,0.41-0.34c0,0,0,0,1.17-3.33
		c0,0,0,0,3.42,0.58c0.25,0.08,0.41,0,0.49-0.16C23.9,20.58,23.9,20.33,23.81,20.16z M5.82,22.33c0,0,0,0-1-2.67
		c-0.08-0.25-0.33-0.41-0.49-0.33c0,0,0,0-2.83,0.41c0,0,0,0,2.75-4.78c1.01,1.42,2.4,2.55,4,3.25C7.9,18.79,7.22,19.95,5.82,22.33z
		 M11.98,18c-4.67,0-8.5-3.84-8.5-8.5c0-4.75,3.84-8.5,8.5-8.5c4.74,0,8.5,3.75,8.5,8.5C20.48,14.16,16.73,18,11.98,18z
		 M19.57,19.33c-0.25-0.08-0.42,0.08-0.5,0.33c0,0,0,0-1,2.67c0,0,0,0-2.44-4.06c1.61-0.67,3-1.77,4.02-3.16
		c0.4,0.67,1.19,2.01,2.76,4.63C22.4,19.74,22.4,19.74,19.57,19.33z"/>
	<path class="st0" d="M12.63,11.88V4.31h-1.13h-0.05l-0.04,0.03c-0.57,0.52-1.24,0.95-2.02,1.28L9.31,5.66v0.99v0.18l0.17-0.06
		c0.5-0.18,0.9-0.35,1.2-0.53l0,0c0.23-0.13,0.46-0.31,0.69-0.48v6.12H9.31v0.97v0.12h5.34v-0.97v-0.12H12.63z"/>
</g>
</svg>
