<?xml version="1.0" encoding="utf-8"?>
<!-- Generator: Adobe Illustrator 26.2.1, SVG Export Plug-In . SVG Version: 6.00 Build 0)  -->
<svg version="1.1" id="Layer_1" xmlns="http://www.w3.org/2000/svg" xmlns:xlink="http://www.w3.org/1999/xlink" x="0px" y="0px"
	 viewBox="0 0 24 24" style="enable-background:new 0 0 24 24;" xml:space="preserve">
<style type="text/css">
	.st0{fill:#FFFFFF;}
</style>
<path class="st0" d="M23.97,12.44c-2.65-8.19-2.65-8.19-2.65-8.19c-0.08-0.15-0.23-0.31-0.39-0.31c-0.39-0.08-3.35-0.55-4.13-0.55
	c-0.23,0-0.86-0.15-1.4-0.39c-1.01-0.23-2.1-0.55-2.81-0.47c-1.09,0.08-3.04,1.09-3.66,1.41c-5.46,0-5.46,0-5.46,0
	C3.23,3.94,3.07,4.09,3,4.25c-2.97,8.19-2.97,8.19-2.97,8.19c-0.08,0.23,0,0.46,0.16,0.62c1.4,0.93,1.4,0.93,1.4,0.93
	c-0.39,0.62-0.78,1.56-0.55,2.1c0.23,0.7,1.48,1.64,2.34,1.87c0,0.08,0,0.15,0,0.15c0.16,0.55,0.55,0.94,1.25,1.25
	c0.39,0.16,0.78,0.24,1.09,0.24c0.15,0.23,0.39,0.39,0.62,0.62c0.55,0.39,1.33,0.55,1.87,0.46c0.39,0.39,1.01,0.79,1.71,0.79
	c0.32,0,0.62-0.08,0.86-0.24c0.24-0.15,0.47-0.31,0.62-0.62c0.7,0.32,1.56,0.47,2.26,0.47c0.39,0,0.62-0.08,0.93-0.08
	c0.31-0.15,0.62-0.23,0.86-0.47c0.08,0,0.15,0,0.15,0c0.08,0,0.16,0.08,0.24,0.08c0.47,0,1.01-0.23,1.4-0.62
	c0.39-0.31,0.62-0.7,0.78-1.16c0.47-0.08,0.86-0.32,1.25-0.62c0.47-0.39,0.7-0.86,0.86-1.33c0.39-0.08,0.78-0.32,1.09-0.62
	c0.55-0.47,0.86-1.02,0.93-1.72c1.72-1.56,1.72-1.56,1.72-1.56C23.97,12.9,24.05,12.67,23.97,12.44z M3.54,16.96
	c-0.08,0-0.08,0-0.08,0C3,16.72,2.14,16.18,1.98,15.79c-0.08-0.15,0.16-0.78,0.39-1.17c0.08-0.08,0.08-0.08,0.08-0.08
	c1.56,1.17,1.56,1.17,1.56,1.17C3.85,16.1,3.62,16.49,3.54,16.96z M5.65,18.52H5.57c-0.08,0-0.32,0-0.55-0.08
	c-0.39-0.15-0.62-0.39-0.62-0.55c0-0.08,0-0.15,0-0.23v-0.08c0.08-0.47,0.39-1.17,0.62-1.64c0.08,0,0.15-0.08,0.15-0.08
	c0-0.08,0.08-0.15,0.08-0.23c0.15-0.24,0.23-0.32,0.32-0.39c0.31-0.08,0.93,0.39,1.01,0.55c0,0.08,0,0.08,0,0.08
	c0.08,0,0.08,0.08,0,0.23L5.65,18.52z M8.53,17.82c-0.62,1.87-0.62,1.87-0.62,1.87c-0.23,0-0.62-0.08-0.93-0.32
	c-0.24-0.15-0.32-0.23-0.39-0.39c0.93-2.42,0.93-2.42,0.93-2.42c0.47,0.08,0.94,0.32,1.02,0.47C8.53,17.12,8.61,17.35,8.53,17.82z
	 M10.71,19.45c0,0.08-0.08,0.08-0.08,0.08c-0.08,0.15-0.08,0.31-0.08,0.46c-0.08,0.16-0.15,0.32-0.31,0.39
	c-0.08,0.08-0.16,0.08-0.32,0.08c-0.31,0-0.78-0.23-1.01-0.47c0.54-1.87,0.54-1.87,0.54-1.87c0.16-0.08,0.39-0.15,0.55-0.08
	c0.24,0,0.62,0.08,0.7,0.39C10.79,18.67,10.79,19.06,10.71,19.45z M20.54,15.47c-0.24,0.24-0.55,0.39-0.78,0.39
	c-0.08,0-0.08,0-0.08,0c-2.57-2.1-2.57-2.1-2.57-2.1c-0.24-0.24-0.62-0.78-0.62-1.02c0-0.31-0.24-0.47-0.55-0.47
	c-0.32,0-0.47,0.24-0.47,0.55c0.08,0.7,0.78,1.49,0.94,1.64c0,0.08,0,0.08,0.08,0.08c2.57,2.1,2.57,2.1,2.57,2.1s0,0.08,0.08,0.08
	c-0.08,0.24-0.24,0.47-0.47,0.7c-0.31,0.24-0.62,0.39-0.93,0.39C15,15.55,15,15.55,15,15.55c-0.08-0.08-0.24-0.08-0.39-0.08
	c-0.15,0-0.23,0.08-0.31,0.16c-0.08,0.15-0.16,0.23-0.16,0.39c0,0.15,0.08,0.24,0.24,0.32c2.65,2.18,2.65,2.18,2.65,2.18
	c-0.08,0.32-0.24,0.55-0.47,0.7c-0.15,0.23-0.47,0.32-0.7,0.32c-2.57-1.95-2.57-1.95-2.57-1.95c-0.08-0.08-0.23-0.08-0.39-0.08
	c-0.08,0-0.23,0.08-0.31,0.24c-0.08,0.08-0.08,0.23-0.08,0.39c0,0.08,0.08,0.24,0.15,0.32c1.95,1.48,1.95,1.48,1.95,1.48
	c-0.08,0-0.15,0.08-0.23,0.08c-0.24,0-0.47,0.08-0.7,0.08c-0.62,0-1.4-0.23-1.95-0.46c0.15-0.62,0.08-1.17,0-1.49
	c-0.16-0.62-0.78-1.01-1.56-1.09c-0.15,0-0.39,0-0.54,0c-0.08,0-0.08,0-0.08,0c0-0.15,0-0.24,0-0.24c-0.15-0.7-1.09-1.16-1.94-1.25
	c0,0,0,0,0-0.08c-0.16-0.39-0.62-0.86-1.09-1.01c-0.47-0.24-0.86-0.32-1.25-0.15c-0.23,0.08-0.39,0.23-0.62,0.46
	c0,0.08,0,0.08,0,0.08c-0.08-0.08-0.08-0.08-0.08-0.08c-3.43-2.34-3.43-2.34-3.43-2.34c2.73-7.49,2.73-7.49,2.73-7.49
	c4.45,0,4.45,0,4.45,0C6.35,9.47,6.35,9.47,6.35,9.47v0.08c0,0.08-0.24,0.78,0.31,1.33c0.39,0.55,1.09,0.7,2.1,0.62
	c1.72-0.15,2.26-1.17,2.73-1.95c0.16-0.39,0.32-0.7,0.55-0.93c0.7-0.55,1.48-0.7,2.5-0.39c0.47,0.08,2.1,1.72,3.43,3.2
	c3.2,3.12,3.2,3.12,3.2,3.12C21.09,14.85,20.85,15.24,20.54,15.47z M22.87,12.51c-1.16,1.09-1.16,1.09-1.16,1.09
	c-0.08,0-0.08,0-0.08,0c-2.88-2.88-2.88-2.88-2.88-2.88c-0.7-0.78-3.04-3.28-3.9-3.51c-1.33-0.39-2.49-0.16-3.43,0.62
	c-0.39,0.39-0.62,0.78-0.86,1.25c-0.39,0.7-0.7,1.33-1.95,1.4c-0.55,0.08-1.01,0-1.17-0.24c-0.15-0.15-0.15-0.31-0.08-0.39l2.1-5.07
	c0.79-0.39,2.42-1.25,3.2-1.25h0.08c0.55,0,1.56,0.23,2.34,0.47c0.7,0.23,1.33,0.39,1.71,0.39c0.47,0,2.26,0.32,3.59,0.47
	c0.08,0,0.08,0,0.08,0c2.49,7.64,2.49,7.64,2.49,7.64C22.87,12.51,22.87,12.51,22.87,12.51z"/>
</svg>
