<svg version="1.1" id="Layer_1" xmlns="http://www.w3.org/2000/svg" x="0" y="0" viewBox="0 0 99.2 99.2" style="enable-background:new 0 0 99.2 99.2" xml:space="preserve"><style>.st0{fill:#fff}</style><path class="st0" d="M64.6 66.9c-2.2-1.1-4.4-1.8-6.7-3v-3.3c1.5-1.1 3-3.3 3.3-7.8 1.1-1.1 1.9-3 1.9-4.8 0-1.5 0-2.2-.7-3.3 0 0-.4-.4-.4-.7.7-1.5 1.5-4.5.7-7.1-1.1-4.8-7-6.3-11.5-6.3-4.1 0-8.9 1.1-10.8 4.5-1.5 0-2.6.4-3.3 1.5-1.9 2.2-.8 5.6.4 7.4-.4.4-.4.7-.8.7-.4 1.1-.7 2.2-.7 3.3 0 1.9.7 3.7 1.9 4.8.4 4.4 1.8 6.7 3.3 7.8v3.3c-2.2 1.1-4.5 1.9-6.3 3-5.9-4.4-9.7-11.5-9.7-19.7 0-13.4 10.8-24.5 24.5-24.5 13.4 0 24.5 11.1 24.5 24.5.1 8.2-3.6 15.2-9.6 19.7zm-8.8 4c-.8.4-1.5 1.1-1.5 2.2v3.3h-8.9v-3.3c0-1.1-.7-1.8-1.8-2.2-1.5-.4-2.6-.7-4.1-1.5 1.5-.7 3.3-1.1 4.8-1.9.7-.4 1.5-1.1 1.5-2.2V59c0-.8-.7-1.5-1.5-1.9 0 0-1.9-1.1-1.9-5.9 0-1.1-.7-1.9-1.5-1.9-.4-.4-.8-1.5-.4-2.2 1.1 0 1.8-1.1 1.8-2.2 0-.4 0-1.1-.7-1.9-.7-2.6-1.1-3.3-1.1-3.7h.7c1.1.4 2.2-.4 2.6-1.5.4-1.9 3.7-3.3 7.4-3.3s6.7 1.5 7.4 3.3c.4 1.8-.7 4.1-1.1 5.2-.4.8-.7 1.5-.7 1.9 0 1.1 1.1 2.2 1.8 2.2.4 0 .4.4.4.4 0 .7-.4 1.1-.4 1.5-1.1.4-1.8 1.1-1.8 2.2 0 4.5-1.5 5.6-1.9 5.9-.7.4-1.1 1.1-1.1 1.9v6.3c0 1.1.4 1.8 1.1 2.2 1.9.8 3.3 1.1 4.8 1.9-1 .8-2.5 1.2-3.9 1.5zm-6-52.7c-16 0-29 13-29 29 0 12.6 8.2 23.7 20.1 27.9v3.7c0 1.1.7 2.2 2.2 2.2h13.4c1.1 0 2.2-1.1 2.2-2.2v-3.7C70.6 71 78.8 59.9 78.8 47.2c0-16-13-29-29-29zM52 94.4h-4.4c-1.5 0-2.2.7-2.2 2.2 0 1.1.7 2.2 2.2 2.2H52c1.1 0 2.2-1.1 2.2-2.2 0-1.5-1.1-2.2-2.2-2.2zM56.5 85.4H43.1c-1.5 0-2.2.7-2.2 2.2 0 1.1.7 2.2 2.2 2.2h13.4c1.1 0 2.2-1.1 2.2-2.2 0-1.4-1.1-2.2-2.2-2.2zM49.8 13.8c1.1 0 2.2-.7 2.2-2.2V2.7C52 1.6 50.9.5 49.8.5c-1.5 0-2.2 1.1-2.2 2.2v8.9c0 1.4.7 2.2 2.2 2.2zM94.4 45h-8.9c-1.5 0-2.2 1.1-2.2 2.2 0 1.5.8 2.2 2.2 2.2h8.9c1.1 0 2.2-.7 2.2-2.2 0-1.1-1.1-2.2-2.2-2.2zM13.8 45H4.9c-1.1 0-2.2 1.1-2.2 2.2 0 1.5 1.1 2.2 2.2 2.2h8.9c1.5 0 2.2-.7 2.2-2.2 0-1.1-.8-2.2-2.2-2.2zM22.7 23.8c.7.4 1.1.4 1.8.4.4 0 1.1 0 1.5-.4.7-1.1.7-2.2 0-3.3l-9.7-9.3c-.7-1.1-2.2-1.1-3 0-.7.7-.7 2.2 0 3l9.4 9.6zM75.1 24.2c.4 0 1.1 0 1.5-.4l9.3-9.7c1.1-.7 1.1-2.2 0-3-.7-1.1-2.2-1.1-3 0l-9.7 9.3c-.7 1.1-.7 2.2 0 3.3.7.5 1.1.5 1.9.5z"/></svg>