<svg version="1.1" id="Layer_1" xmlns="http://www.w3.org/2000/svg" x="0" y="0" viewBox="0 0 99.2 99.2" style="enable-background:new 0 0 99.2 99.2" xml:space="preserve"><style>.st0{fill:#fff}</style><path class="st0" d="M90.8 92.5H8.5c-.9 0-1.8-.9-1.8-1.8v-8.9c0-6.9 4.2-12.8 10.4-15.2h.3l22.7-6.3c.9-.3 1.8.3 2.1 1.2.3.9-.3 2.1-1.2 2.4l-22.7 6.2c-4.8 1.8-8 6.6-8 11.6v7.2L89 89v-7.2c0-5.1-3.3-9.8-8-11.6L58.3 64c-.9-.3-1.5-1.5-1.2-2.4.3-.9 1.2-1.5 2.1-1.2l23 6.3C88.4 69 92.5 75 92.5 81.8v8.9c0 1-.5 1.8-1.7 1.8zM46 42.4c-.9 0-1.8-.9-1.8-1.8H40.6c0 .9-.6 1.8-1.8 1.8-.9 0-1.8-.9-1.8-1.8 0-1.2.3-2.1.9-2.7 1.2-.9 2.7-.9 4.2-.9H43c1.5 0 2.7 0 3.9.9.6.6.9 1.5.9 2.7 0 1-.6 1.8-1.8 1.8zM60.3 42.4c-.9 0-1.8-.9-1.8-1.8H54.9c0 .9-.6 1.8-1.8 1.8-.9 0-1.8-.9-1.8-1.8 0-1.2.3-2.1.9-2.7 1.2-.9 2.7-.9 4.2-.9H57.3c1.5 0 2.7 0 3.9.9.6.6.9 1.5.9 2.7 0 1-.6 1.8-1.8 1.8z"/><path class="st0" d="M49.6 67.5c-5.7 0-18.5-7.2-19.7-18.2-2.4-.9-3.9-3.6-3.9-6.9 0-3.3 1.5-6 3.9-6.9V28c0-.9.9-1.8 1.8-1.8 1.2 0 1.8.9 1.8 1.8v9c0 .9-.6 1.8-1.8 1.8-1.8 0-2.1 2.4-2.1 3.6 0 1.2.3 3.6 2.1 3.6 1.2 0 1.8.9 1.8 1.8 0 9.3 11.3 16.1 16.1 16.1 1.2 0 1.8.9 1.8 1.8s-.6 1.8-1.8 1.8z"/><path class="st0" d="M49.6 67.5c-.9 0-1.8-.9-1.8-1.8s.9-1.8 1.8-1.8c4.8 0 16.1-6.9 16.1-16.1 0-.9.9-1.8 1.8-1.8.6 0 1.2 0 1.5-.9.6-.6.9-1.8.9-2.7 0-1.2-.6-3.6-2.4-3.6-.9 0-1.8-.9-1.8-1.8v-9c0-.9.9-1.8 1.8-1.8 1.2 0 1.8.9 1.8 1.8v7.5c2.4.9 4.2 3.6 4.2 6.9 0 1.8-.6 3.3-1.5 4.8-.6.9-1.5 1.8-2.7 2.1-1.2 11-14 18.2-19.7 18.2zM18.9 15.6 49.6 21l30.7-5.4-30.7-5.4-30.7 5.4zm30.7 9h-.3L8.1 17.4c-.9-.3-1.5-.9-1.5-1.8s.6-1.8 1.5-1.8l41.2-7.1h.6l41.2 7.1c.9 0 1.5.9 1.5 1.8s-.6 1.5-1.5 1.8l-41.2 7.2h-.3z"/><path class="st0" d="M49.6 35.3c-13.1 0-18.8-5.7-19.1-6-.3-.3-.6-.9-.6-1.2v-8.6c0-.9.9-1.8 1.8-1.8 1.2 0 1.8.9 1.8 1.8v7.8c1.5 1.2 6.9 4.5 16.1 4.5 9.5 0 14.6-3.3 16.1-4.5v-7.8c0-.9.9-1.8 1.8-1.8 1.2 0 1.8.9 1.8 1.8v8.6c0 .3 0 .9-.6 1.2 0 .3-6 6-19.1 6zM17.4 31.7c-.9 0-1.8-.9-1.8-1.8V17.1c0-.9.9-1.8 1.8-1.8 1.2 0 1.8.9 1.8 1.8v12.8c0 .9-.6 1.8-1.8 1.8z"/><path class="st0" d="M14.4 53.2h6.2l-3.3-14.9-2.9 14.9zm8.4 3.6H12.1c-.6 0-.9-.3-1.2-.6-.6-.6-.6-1.2-.6-1.5l5.4-25c.3-.9.9-1.5 1.8-1.5s1.8.6 1.8 1.5l5.4 25c0 .3 0 .9-.3 1.5-.4.3-1 .6-1.6.6zM49.6 85.4c-.3 0-.9-.3-1.2-.6L29.6 66c-.6-.6-.6-1.8 0-2.4.6-.9 1.8-.9 2.4 0l17.6 17.3 17.6-17.6c.6-.6 1.8-.6 2.7 0 .6.9.6 2.1 0 2.7L50.8 84.8c-.3.3-.6.6-1.2.6z"/></svg>