<svg version="1.1" id="Layer_1" xmlns="http://www.w3.org/2000/svg" x="0" y="0" viewBox="0 0 99.2 99.2" style="enable-background:new 0 0 99.2 99.2" xml:space="preserve"><style>.st0{fill:#fff}</style><path class="st0" d="M83.6 13.8c3 0 5.4 2.4 5.4 5.4 0 3-2.4 5.4-5.4 5.4-3 0-5.4-2.4-5.4-5.4 0-3 2.4-5.4 5.4-5.4zM68.7 36.5l10.1-9.8c1.5.9 3 1.5 4.8 1.5 5.1 0 8.9-4.2 8.9-9 0-5.1-3.9-9-8.9-9s-9 3.9-9 9c0 1.8.6 3.6 1.5 4.8l-9.8 10.1c-.6.6-.6 1.8 0 2.4.6.6 1.8.6 2.4 0zM83.6 85.4c-3 0-5.4-2.4-5.4-5.4 0-3 2.4-5.4 5.4-5.4 3 0 5.4 2.4 5.4 5.4 0 3-2.4 5.4-5.4 5.4zm0-14.3c-1.8 0-3.6.6-5.1 1.5L72.3 66c-.6-.6-1.8-.6-2.7 0-.6.9-.6 1.8 0 2.7l6.6 6.3c-.9 1.5-1.5 3.3-1.5 5.1 0 4.7 4.2 8.9 9 8.9 5.1 0 8.9-4.2 8.9-8.9-.1-5.1-3.9-9-9-9zM15.6 13.8c3 0 5.4 2.4 5.4 5.4 0 3-2.4 5.4-5.4 5.4-2.7 0-5.4-2.4-5.4-5.4 0-3 2.7-5.4 5.4-5.4zm0 14.3c1.8 0 3.6-.6 5.1-1.5l9.8 9.8c.6.6 1.8.6 2.7 0 .6-.6.6-1.8 0-2.4L23.1 24c.9-1.2 1.5-3 1.5-4.8 0-5.1-3.9-9-9-9-4.8 0-8.9 3.9-8.9 9 0 4.8 4.1 8.9 8.9 8.9zM15.6 85.4c-3 0-5.4-2.4-5.4-5.4 0-3 2.4-5.4 5.4-5.4 3 0 5.4 2.4 5.4 5.4 0 3-2.4 5.4-5.4 5.4zM27.2 66l-6.6 6.6c-1.5-.9-3-1.5-5.1-1.5-4.8 0-8.9 3.9-8.9 9 0 4.7 4.2 8.9 8.9 8.9 5.1 0 9-4.2 9-8.9 0-1.8-.6-3.6-1.5-5.1l6.6-6.3c.6-.9.6-1.8 0-2.7-.6-.6-1.8-.6-2.4 0zM83.6 45.7c3 0 5.4 2.4 5.4 5.4 0 3-2.4 5.4-5.4 5.4-3 0-5.4-2.4-5.4-5.4 0-3 2.4-5.4 5.4-5.4zm0 14.4c5.1 0 8.9-3.9 8.9-9 0-4.8-3.9-9-8.9-9-4.2 0-8.1 3.3-8.7 7.2H68c-1.2 0-1.8.9-1.8 1.8 0 1.2.6 1.8 1.8 1.8h6.9c.6 4.2 4.5 7.2 8.7 7.2zM15.6 45.7c3 0 5.4 2.4 5.4 5.4 0 3-2.4 5.4-5.4 5.4-2.7 0-5.4-2.4-5.4-5.4 0-3 2.7-5.4 5.4-5.4zm0 14.4c4.5 0 8.1-3 9-7.2h6.9c1.2 0 1.8-.6 1.8-1.8 0-.9-.6-1.8-1.8-1.8h-6.9c-.9-3.9-4.5-7.2-9-7.2-4.8 0-8.9 4.2-8.9 9 0 5.1 4.1 9 8.9 9zM57.4 44.5 47.9 54l-6-6c-.6-.6-1.8-.6-2.4 0-.6.6-.6 1.8 0 2.7l7.2 7.2c.3.3.6.3 1.2.3.3 0 .9 0 1.2-.3l11-10.8c.6-.9.6-1.8 0-2.7-.9-.5-2.2-.5-2.7.1z"/><path class="st0" d="M61 62.7c-2.7 2.7-6.9 4.8-11.3 4.8-4.5 0-8.3-2.1-11.3-4.8-3-3-4.7-7.2-4.7-11.6 0-4.5 1.8-8.3 4.7-11.3 3-3 6.9-4.8 11.3-4.8 4.5 0 8.6 1.8 11.3 4.8 3 3 4.7 6.9 4.7 11.3 0 4.5-1.8 8.6-4.7 11.6zM49.6 31.4c-10.7 0-19.7 9-19.7 19.7 0 11 9 20 19.7 20 11 0 19.7-9 19.7-20 0-10.7-8.7-19.7-19.7-19.7z"/></svg>