<svg version="1.1" id="Layer_1" xmlns="http://www.w3.org/2000/svg" x="0" y="0" viewBox="0 0 99.2 99.2" style="enable-background:new 0 0 99.2 99.2" xml:space="preserve"><style>.st0{fill:#fff}</style><path class="st0" d="M55 92.6H44.3c-.9 0-1.8-.9-1.8-1.8V80.4c-3-.6-6-1.5-8.3-2.7l-7.5 7.1c-.6.9-1.8.9-2.4 0L14.1 75c-.3-.6-.6-.9-.6-1.5 0-.3.3-.9.6-1.2l7.1-7.1c-.9-2.4-1.8-5.7-2.7-8.4H8.4c-.9 0-1.8-.9-1.8-1.8V44.3c0-1.2.9-1.8 1.8-1.8h10.1c.9-3 1.8-6 2.7-8.3l-7.1-7.5c-.3-.3-.6-.6-.6-1.2s.3-.9.6-1.2l10.1-10.1c.6-.6 1.8-.6 2.4 0l7.5 7.2c2.4-1.2 5.4-2.1 8.3-2.7V8.6c0-1.2.9-1.8 1.8-1.8h10.7c.9 0 1.8.6 1.8 1.8v10.1c3.3.9 7.2 2.1 9.5 3.6.9.3 1.2 1.5.6 2.4-.6.9-1.5.9-2.4.6-2.4-1.5-6.9-2.7-10.1-3.6-.6 0-1.2-.9-1.2-1.5v-9.8h-7.2v9.8c0 .6-.6 1.5-1.5 1.5-3 .9-7.5 2.1-9.8 3.6-.6.3-1.5.3-2.1-.3l-7.2-6.8-7.3 7.3 6.9 6.8c.6.6.6 1.5.3 2.4-1.5 2.7-3 7.8-3.3 9.8-.3.9-.9 1.5-1.8 1.5h-9.8v7.2h9.8c.9 0 1.5.6 1.8 1.2.3 2.1 1.8 7.5 3.3 10.1.3.6.3 1.5-.3 2.1L18 73.5l7.5 7.8 7.2-7.2c.3-.6 1.5-.6 2.1 0 2.7 1.5 8 2.7 9.8 3.3.9.3 1.5.9 1.5 1.8V89h7.2v-9.8c0-.9.6-1.5 1.2-1.8 2.1-.6 7.5-1.8 10.1-3.3.6-.6 1.5-.6 2.1 0l6.8 7.2 7.8-7.8-6.9-6.9c-.6-.6-.9-1.5-.3-2.1 1.5-2.7 2.7-8 3.3-10.1.3-.6.9-1.2 1.8-1.2H89V46h-9.8c-.9 0-1.5-.6-1.8-1.5-.3-1.8-.9-3.9-1.8-6-.3-1.2.3-2.1 1.2-2.4.9-.3 2.1.3 2.4 1.2.6 1.5.9 3.3 1.5 5.1h10.1c.9 0 1.8.6 1.8 1.8v10.7c0 .9-.9 1.8-1.8 1.8H80.7c-.9 2.7-1.8 6-3 8.4l7.5 7.1c.6.6.6 1.8 0 2.7l-10.1 9.8c-.9.9-1.8.9-2.7 0l-7.2-7.1c-2.4 1.2-5.7 2.1-8.3 2.7v10.4c-.1 1-1.1 1.9-1.9 1.9z"/><path class="st0" d="M50.8 59.8c-.6 0-1.2 0-1.5-.6L33.5 43.4c-.9-.9-.9-1.8 0-2.7.6-.6 1.8-.6 2.4 0l14.6 14.6 38.8-48c.5-.9 1.7-.9 2.6-.3.6.6.9 1.8.3 2.4L52 59.2c-.3.3-.6.6-1.2.6z"/></svg>