<svg version="1.1" id="Layer_1" xmlns="http://www.w3.org/2000/svg" x="0" y="0" viewBox="0 0 99.2 99.2" style="enable-background:new 0 0 99.2 99.2" xml:space="preserve"><style>.st0{fill:#fff}</style><path class="st0" d="M29.9 89h39.4v-3.6H29.9V89zm41.2 3.6H28.2c-1.2 0-1.8-.9-1.8-1.8v-7.2c0-.9.6-1.8 1.8-1.8h42.9c.9 0 1.8.9 1.8 1.8v7.2c0 .8-.9 1.8-1.8 1.8z"/><path class="st0" d="M37.1 81.8h25V67.5h-25v14.3zm26.8 3.6H35.3c-1.2 0-1.8-.9-1.8-1.8V65.7c0-.9.6-1.8 1.8-1.8h28.6c.9 0 1.8.9 1.8 1.8v17.9c0 .9-.9 1.8-1.8 1.8z"/><path class="st0" d="M47.5 63.9h3.9l3.9-23.5c0-.9.9-1.5 1.8-1.5h1.8l2.7-7.8c-9.5-3.9-14-3.9-24.2 0l2.7 7.8h2.1c.9 0 1.5.6 1.8 1.5l3.5 23.5zm5.7 3.6H46c-.9 0-1.8-.6-1.8-1.5l-3.6-23.6h-1.8c-.9 0-1.5-.6-1.8-1.2l-3.6-10.7c-.3-.9.3-1.8 1.2-2.4 12.5-4.8 17.6-4.8 29.8 0 .9.6 1.2 1.5.9 2.4l-3.6 10.7c0 .6-.9 1.2-1.5 1.2h-1.8L55 66c-.3.9-.9 1.5-1.8 1.5z"/><path class="st0" d="M44.2 10.2v5.4c0 3 2.4 5.4 5.4 5.4 3 0 5.4-2.4 5.4-5.4v-5.4H44.2zm5.4 14.3c-5.1 0-8.9-3.9-8.9-8.9V8.4c0-.9.6-1.8 1.8-1.8h14.3c.9 0 1.8.9 1.8 1.8v7.2c0 5.1-4.2 8.9-9 8.9z"/></svg>