<svg version="1.1" id="Layer_1" xmlns="http://www.w3.org/2000/svg" x="0" y="0" viewBox="0 0 99.2 99.2" style="enable-background:new 0 0 99.2 99.2" xml:space="preserve"><style>.st0{fill:#fff}</style><path class="st0" d="m55.9 56.2-14-5.1c-.9-.3-1.2-.9-1.2-1.8V41h3.6v7.2l12.8 4.5-1.2 3.5zM46.1 69.6H8.5c-.9 0-1.8-.9-1.8-1.8v-5.4c0-4.5 2.7-8.3 6.8-9.8l12.8-4.5v-6.6h3.6v7.8c0 .9-.6 1.5-1.2 1.8l-14 5.1c-2.7.9-4.5 3.3-4.5 6.2V66H46v3.6z"/><path class="st0" d="M35 11.7c-6.9 0-12.5 6.6-12.5 14.9S28.2 41.8 35 41.8c6.6 0 12.2-6.9 12.2-15.2.1-8.3-5.6-14.9-12.2-14.9zm0 33.7c-9 0-16.1-8.4-16.1-18.8 0-10.1 7.2-18.5 16.1-18.5 8.6 0 15.8 8.3 15.8 18.5 0 10.5-7.1 18.8-15.8 18.8z"/><path class="st0" d="M45.2 27.2c-3.3 0-6-1.2-8.3-4.2-2.4 2.4-6.6 4.2-10.5 4.2-2.4 0-4.2-.6-6.2-1.5l1.8-3.3c1.2.6 2.7 1.2 4.5 1.2 3.6 0 7.8-2.4 9-4.5.3-.6.9-1.2 1.8-1.2.6 0 1.2.6 1.5.9 2.4 4.2 4.8 5.4 8.7 4.8.3 0 .6-.3.9-.3h.6l.3 3.6h-.6c-.3 0-.3 0-.6.3h-2.9zM65.7 47.5c-.9 0-1.8-.9-1.8-1.8v-4.8c0-.9.9-1.8 1.8-1.8s1.8.9 1.8 1.8v4.8c0 .9-.8 1.8-1.8 1.8z"/><path class="st0" d="M58.3 45.4c-1.2 0-1.8-.6-1.8-1.8 0-.9.6-1.8 1.8-1.8 6.6 0 12.2-6.9 12.2-15.2 0-8.3-5.7-14.9-12.2-14.9-1.2 0-1.8-.9-1.8-1.8 0-1.2.6-1.8 1.8-1.8 8.7 0 15.8 8.3 15.8 18.5 0 10.5-7.1 18.8-15.8 18.8z"/><path class="st0" d="M68.4 27.2c-4.2 0-7.1-2.1-9.5-6.5-.6-.9-.3-1.8.6-2.4.9-.3 1.8 0 2.4.6 2.4 4.2 4.8 5.4 8.6 4.8.3 0 .6-.3.9-.3h.6c.9 0 1.8.6 2.1 1.5 0 1.2-.6 2.1-1.8 2.1h-.6c-.3 0-.3 0-.6.3-.9-.1-1.8-.1-2.7-.1zM72.9 78.5c.3 0 .6 0 .9.3l7.8 5.4-3.3-8.6c-.3-.9 0-1.5.6-2.1l6.8-5.7h-7.5c-.9 0-1.5-.6-1.8-1.2L72.9 58 69 66.6c-.3.6-.9 1.2-1.5 1.2h-7.8l7.2 5.7c.6.6.6 1.2.3 2.1L64 84.2l7.8-5.4c.2-.3.8-.3 1.1-.3zm12.5 12.6c-.3 0-.9-.3-1.2-.3l-11.3-8.3-11.6 8.3c-.6.3-1.5.3-2.1 0-.6-.6-.9-1.5-.6-2.1l5.1-13.1-9.8-8.4c-.6-.3-.9-1.2-.6-1.8.3-.9.9-1.2 1.8-1.2h11.3l4.7-11.6c.3-.6 1.2-.9 1.8-.9.6 0 1.5.3 1.5.9l5.1 11.6h11.3c.6 0 1.5.3 1.5 1.2.3.6.3 1.5-.3 1.8l-9.8 8.4L87 88.7c.3.6.3 1.5-.6 2.1-.4 0-.7.3-1 .3z"/></svg>