<svg version="1.1" id="Layer_1" xmlns="http://www.w3.org/2000/svg" x="0" y="0" viewBox="0 0 273.9 183.6" style="enable-background:new 0 0 273.9 183.6" xml:space="preserve"><style>.st1{fill:#fff}</style><radialGradient id="SVGID_1_" cx="200.056" cy="95.65" r="182.407" gradientUnits="userSpaceOnUse"><stop offset="0" style="stop-color:#f37022"/><stop offset=".078" style="stop-color:#eb6d28"/><stop offset=".198" style="stop-color:#d66337"/><stop offset=".344" style="stop-color:#b35450"/><stop offset=".509" style="stop-color:#834072"/><stop offset=".621" style="stop-color:#5f308c"/><stop offset=".753" style="stop-color:#61328d"/><stop offset=".808" style="stop-color:#663991"/><stop offset=".848" style="stop-color:#704598"/><stop offset=".88" style="stop-color:#7d57a2"/><stop offset=".909" style="stop-color:#8f6eae"/><stop offset=".935" style="stop-color:#a48abe"/><stop offset=".958" style="stop-color:#beabd1"/><stop offset=".979" style="stop-color:#dcd1e6"/><stop offset=".999" style="stop-color:#fcfcfd"/><stop offset="1" style="stop-color:#fff"/></radialGradient><circle cx="89.7" cy="88.8" r="56.5" style="fill:url(#SVGID_1_)"/><g><path class="st1" d="M79.2 102.7v-4.2L90 88.3c.9-.8 1.5-1.5 1.9-2.1.4-.6.7-1.2.8-1.7.1-.5.2-1 .2-1.4 0-1.1-.4-2-1.1-2.6s-1.9-.9-3.3-.9c-1.2 0-2.3.2-3.3.7-1 .5-1.8 1.2-2.5 2.1l-4.7-3c1.1-1.6 2.6-2.9 4.5-3.8 1.9-.9 4.1-1.4 6.6-1.4 2.1 0 3.9.3 5.5 1s2.8 1.6 3.6 2.9c.9 1.2 1.3 2.7 1.3 4.4 0 .9-.1 1.8-.3 2.7s-.7 1.8-1.4 2.8c-.7 1-1.7 2.1-3 3.3l-9 8.4-1.2-2.4h15.8v5.3H79.2z"/></g><g><path d="M167.7 88.8c0-43.1-34.9-78-78-78s-78 34.9-78 78 34.9 78 78 78h168.4" style="fill:none;stroke:#fff;stroke-width:4;stroke-linecap:round;stroke-linejoin:round"/><path class="st1" d="m244.8 183.2-2.7-2.9 14.4-13.5-14.4-13.4 2.7-2.9 17.6 16.3z"/></g></svg>