<svg version="1.1" id="Layer_1" xmlns="http://www.w3.org/2000/svg" x="0" y="0" viewBox="0 0 216.8 224.3" style="enable-background:new 0 0 216.8 224.3" xml:space="preserve"><style>.st0{fill:#fff}</style><path class="st0" d="M11.9 210.5v-16.8h14.9v16.8h-3.1v-14.9l.7.8H14.2l.7-.8v14.9h-3zM36.8 210.6c-1.3 0-2.5-.3-3.5-.9-1-.6-1.8-1.3-2.4-2.3-.6-1-.9-2.1-.9-3.4 0-1.3.3-2.4.9-3.4.6-1 1.4-1.8 2.4-2.3 1-.6 2.2-.8 3.5-.8 1.3 0 2.5.3 3.5.8 1 .6 1.8 1.3 2.4 2.3s.9 2.1.9 3.4c0 1.3-.3 2.4-.9 3.4s-1.4 1.8-2.4 2.3c-1 .7-2.2.9-3.5.9zm0-2.5c.7 0 1.4-.2 2-.5.6-.3 1-.8 1.4-1.4.3-.6.5-1.3.5-2.1s-.2-1.5-.5-2.1c-.3-.6-.8-1.1-1.4-1.4-.6-.3-1.2-.5-1.9-.5s-1.4.2-2 .5c-.6.3-1 .8-1.4 1.4-.3.6-.5 1.3-.5 2.1s.2 1.5.5 2.1c.3.6.8 1.1 1.4 1.4.6.3 1.2.5 1.9.5zM44.6 210.5l.1-2.5h.6c.5 0 .9-.2 1.2-.5.3-.3.5-.7.6-1.2.1-.5.2-1.1.3-1.8.1-.6.1-1.3.1-2l.2-4.9h10.4v12.8h-3v-11.1l.7.8h-6.1l.6-.8-.2 3.4c0 1.1-.1 2.2-.3 3.2-.1 1-.3 1.8-.6 2.5s-.7 1.3-1.2 1.7c-.5.4-1.1.6-1.9.6-.2 0-.5 0-.8-.1s-.4-.1-.7-.1zM63.3 215.3c-.6 0-1.2-.1-1.9-.3-.6-.2-1.1-.5-1.6-.9l1.2-2.2c.3.3.6.5 1 .6.4.2.8.2 1.2.2.5 0 1-.1 1.3-.4.3-.3.6-.7.9-1.4l.7-1.7.2-.4 4.8-11.3H74l-6 13.8c-.4 1-.8 1.7-1.3 2.3-.5.6-1 1-1.6 1.2-.5.4-1.1.5-1.8.5zm2.6-4.4-5.8-13.3h3.1l4.7 11.1-2 2.2zM84.4 205.4c-.6.3-1.3.5-1.9.7-.7.2-1.4.3-2.1.3-1.6 0-2.9-.4-3.8-1.1-.9-.8-1.3-1.9-1.3-3.5v-4.1h3v3.9c0 .8.2 1.5.7 1.8.5.4 1.2.6 2 .6.6 0 1.2-.1 1.7-.2s1.1-.3 1.7-.6v2.2zm-.2 5.1v-12.8h3v12.8h-3zM91.2 210.5v-12.8h3v8.4l7.1-8.4h2.7v12.8h-3V202l-7.1 8.4h-2.7zM120.4 210.6c-1.3 0-2.5-.3-3.5-.9-1-.6-1.8-1.3-2.4-2.3s-.9-2.1-.9-3.4c0-1.3.3-2.4.9-3.4.6-1 1.4-1.8 2.4-2.3 1-.6 2.2-.8 3.5-.8 1.3 0 2.5.3 3.5.8 1 .6 1.8 1.3 2.4 2.3.6 1 .9 2.1.9 3.4 0 1.3-.3 2.4-.9 3.4-.6 1-1.4 1.8-2.4 2.3-1 .7-2.2.9-3.5.9zm0-2.5c.7 0 1.4-.2 2-.5.6-.3 1-.8 1.4-1.4.3-.6.5-1.3.5-2.1s-.2-1.5-.5-2.1c-.3-.6-.8-1.1-1.4-1.4-.6-.3-1.2-.5-1.9-.5s-1.4.2-2 .5c-.6.3-1 .8-1.4 1.4-.3.6-.5 1.3-.5 2.1s.2 1.5.5 2.1c.3.6.8 1.1 1.4 1.4.5.3 1.2.5 1.9.5zM138.3 210.7h-.7c-2.7 0-4.8-.6-6.3-1.8-1.5-1.1-2.2-2.8-2.2-4.9 0-2.1.7-3.7 2.2-4.8 1.5-1.1 3.6-1.7 6.4-1.7h.7c2.8 0 4.9.6 6.5 1.7 1.5 1.1 2.3 2.8 2.3 4.9 0 2.1-.8 3.8-2.3 4.9-1.6 1.1-3.8 1.7-6.6 1.7zm-.1-2.5c1.4 0 2.5-.2 3.4-.5s1.5-.8 2-1.4c.4-.6.6-1.4.6-2.3 0-.9-.2-1.7-.6-2.3-.4-.6-1.1-1-2-1.3-.9-.3-2-.4-3.4-.4h-.4c-1.3 0-2.4.2-3.3.5-.8.3-1.5.8-1.9 1.4-.4.6-.6 1.3-.6 2.2 0 .9.2 1.7.6 2.3s1 1.1 1.9 1.4c.9.3 1.9.5 3.3.5h.2c.1 0 .2-.1.2-.1zm-1.5 6.9v-22.5h2.8v22.5h-2.8zM158.2 210.7h-.7c-2.7 0-4.8-.6-6.3-1.8-1.5-1.1-2.2-2.8-2.2-4.9 0-2.1.7-3.7 2.2-4.8 1.5-1.1 3.6-1.7 6.4-1.7h.7c2.8 0 4.9.6 6.5 1.7 1.5 1.1 2.3 2.8 2.3 4.9 0 2.1-.8 3.8-2.3 4.9-1.7 1.1-3.9 1.7-6.6 1.7zm-.1-2.5c1.4 0 2.5-.2 3.4-.5s1.5-.8 2-1.4c.4-.6.6-1.4.6-2.3 0-.9-.2-1.7-.6-2.3-.4-.6-1.1-1-2-1.3-.9-.3-2-.4-3.4-.4h-.4c-1.3 0-2.4.2-3.3.5-.8.3-1.5.8-1.9 1.4-.4.6-.6 1.3-.6 2.2 0 .9.2 1.7.6 2.3s1 1.1 1.9 1.4c.9.3 1.9.5 3.3.5h.2c.1 0 .1-.1.2-.1zm-1.6 6.9v-22.5h2.8v22.5h-2.8zM175.9 210.6c-1.4 0-2.7-.3-3.7-.9-1.1-.6-1.9-1.3-2.5-2.3-.6-1-.9-2.1-.9-3.4 0-1.3.3-2.4.9-3.4.6-1 1.4-1.8 2.4-2.3 1-.6 2.1-.8 3.4-.8 1.2 0 2.4.3 3.3.8 1 .5 1.7 1.3 2.3 2.3.6 1 .8 2.2.8 3.5v.9h-10.7v-2h9.1l-1.2.6c0-.7-.1-1.4-.5-1.9-.3-.6-.8-1-1.3-1.3-.6-.3-1.2-.5-1.9-.5s-1.4.2-1.9.5c-.6.3-1 .8-1.3 1.3-.3.6-.5 1.2-.5 2v.5c0 .8.2 1.4.5 2 .4.6.8 1 1.5 1.4.6.3 1.4.5 2.2.5.7 0 1.4-.1 1.9-.3.6-.2 1.1-.6 1.5-1.1l1.6 1.8c-.6.7-1.3 1.2-2.2 1.5s-1.7.6-2.8.6zM185.2 215.1v-17.5h2.9v3l-.1 3.4.2 3.4v7.6h-3zm7.1-4.5c-1 0-2-.2-2.8-.7-.9-.5-1.5-1.2-2-2.2-.5-1-.8-2.2-.8-3.7s.2-2.7.7-3.7 1.2-1.7 2-2.1c.8-.5 1.8-.7 2.9-.7 1.3 0 2.4.3 3.3.8s1.7 1.3 2.3 2.3.9 2.1.9 3.5c0 1.3-.3 2.5-.9 3.5s-1.3 1.7-2.3 2.3c-1 .5-2.1.7-3.3.7zm-.4-2.5c.7 0 1.4-.2 1.9-.5.6-.3 1-.8 1.4-1.4.3-.6.5-1.3.5-2.1s-.2-1.5-.5-2.1c-.3-.6-.8-1.1-1.4-1.4-.6-.3-1.2-.5-1.9-.5s-1.4.2-1.9.5c-.6.3-1 .8-1.4 1.4-.3.6-.5 1.3-.5 2.1s.2 1.5.5 2.1c.3.6.8 1.1 1.4 1.4.6.3 1.2.5 1.9.5zM203.1 210.6c-.6 0-1-.2-1.4-.6s-.6-.8-.6-1.3.2-.9.6-1.3c.4-.4.8-.5 1.4-.5.6 0 1 .2 1.4.5.4.4.5.8.5 1.3s-.2 1-.5 1.3-.8.6-1.4.6zm-1.2-5.7-.6-11.2h3.6l-.6 11.2h-2.4z"/><g><radialGradient id="SVGID_1_" cx="197.408" cy="-4.342" r="173.338" gradientUnits="userSpaceOnUse"><stop offset="0" style="stop-color:#eae8e4"/><stop offset=".12" style="stop-color:#ecceba"/><stop offset=".271" style="stop-color:#eeb28c"/><stop offset=".423" style="stop-color:#f09a66"/><stop offset=".573" style="stop-color:#f18848"/><stop offset=".72" style="stop-color:#f27b33"/><stop offset=".864" style="stop-color:#f37326"/><stop offset="1" style="stop-color:#f37022"/></radialGradient><path style="fill:url(#SVGID_1_)" d="m107.9 9 23.4 58.7 63 4-48.6 40.4 15.6 61.2-53.4-33.8-53.3 33.8 15.6-61.2-48.6-40.4 63-4z"/><g><path class="st0" d="M93.4 106.7v-4.4l13.2-17.8h6.8l-12.9 17.8-3.2-.9h22v5.3H93.4zm15.1 5.8v-5.9l.2-5.3v-5.2h6.1v16.4h-6.3z"/></g></g></svg>