<svg version="1.1" id="Layer_1" xmlns="http://www.w3.org/2000/svg" x="0" y="0" viewBox="0 0 273.9 183.6" style="enable-background:new 0 0 273.9 183.6" xml:space="preserve"><style>.st1{fill:#fff}</style><radialGradient id="SVGID_1_" cx="252.724" cy="87.678" r="232.193" gradientUnits="userSpaceOnUse"><stop offset=".481" style="stop-color:#f37022"/><stop offset=".54" style="stop-color:#df6830"/><stop offset=".76" style="stop-color:#9b4a61"/><stop offset=".919" style="stop-color:#6f3780"/><stop offset="1" style="stop-color:#5f308c"/></radialGradient><circle cx="90.1" cy="88.5" r="56.5" style="fill:url(#SVGID_1_)"/><g><path class="st1" d="M89 102.9c-1.9 0-3.9-.3-5.8-.8s-3.5-1.3-4.9-2.2l2.5-5c1.1.8 2.3 1.4 3.7 1.8 1.4.5 2.8.7 4.3.7 1.6 0 2.9-.3 3.8-1 .9-.6 1.4-1.5 1.4-2.6s-.4-1.9-1.2-2.5c-.8-.6-2.2-.9-4-.9h-3v-4.3l7.8-8.8.7 2.3H79.7v-5.2h19.6v4.2l-7.8 8.8-3.3-1.9h1.9c3.4 0 6 .8 7.8 2.3 1.8 1.5 2.6 3.5 2.6 6 0 1.6-.4 3-1.2 4.4-.8 1.4-2.1 2.5-3.8 3.3-1.7.9-3.9 1.4-6.5 1.4z"/></g><g><path d="M167.6 88.5c0-43.1-34.9-78-78-78s-78 34.9-78 78 34.9 78 78 78H258" style="fill:none;stroke:#fff;stroke-width:4;stroke-linecap:round;stroke-linejoin:round"/><path class="st1" d="m244.7 182.9-2.7-3 14.4-13.4-14.4-13.4 2.7-3 17.6 16.4z"/></g></svg>