<?xml version="1.0" encoding="utf-8"?>
<!-- Generator: Adobe Illustrator 26.2.1, SVG Export Plug-In . SVG Version: 6.00 Build 0)  -->
<svg version="1.1" id="Layer_1" xmlns="http://www.w3.org/2000/svg" xmlns:xlink="http://www.w3.org/1999/xlink" x="0px" y="0px"
	 viewBox="0 0 150 85" style="enable-background:new 0 0 150 85;" xml:space="preserve">
<style type="text/css">
	.st0{fill:#F37022;}
</style>
<g>
	<g>
		<path class="st0" d="M20.8,61.7c-0.6-0.6-1.3-1.3-2.2-1.8c-1.5-0.9-3.4-1.5-5.9-1.5c-3.5,0-6.7,1.4-9,3.8C1.4,64.6,0,68,0,71.8
			s1.4,7.1,3.7,9.5c2.3,2.4,5.5,3.8,9,3.8c2.4,0,4.4-0.6,5.9-1.4c0.9-0.5,1.6-1.1,2.2-1.8v2.5h4.6V59.2h-4.6L20.8,61.7L20.8,61.7z
			 M12.8,80.7c-2.3,0-4.3-0.9-5.8-2.5s-2.3-3.8-2.3-6.4c0-2.6,0.9-4.8,2.3-6.4c1.4-1.6,3.4-2.5,5.8-2.5c2.4,0,4.5,1,6,2.5
			c1.5,1.6,2.4,3.8,2.4,6.4s-0.9,4.8-2.4,6.4S15.2,80.7,12.8,80.7z"/>
		<polygon class="st0" points="54,59.2 52.9,59.2 48.7,59.2 42.6,67.4 36.5,59.2 31.2,59.2 40,71 30.5,84.3 35.7,84.3 42.6,74.7 
			49.5,84.3 54.8,84.3 45.2,71 		"/>
		<path d="M74.8,59.5c-1.4-0.6-3-1-4.8-1c-3.6,0-6.8,1.3-9,3.7c-2.3,2.3-3.6,5.7-3.6,9.7v0.2c0,3.9,1.3,7.1,3.5,9.4s5.4,3.5,9.2,3.5
			c1.8,0,3.6-0.2,5.2-0.9s3.3-1.8,4.9-3.5l0.3-0.4l-3.1-3.1l-0.4,0.4c-1,1-1.9,1.8-3,2.4c-1.1,0.5-2.3,0.8-4,0.8
			c-1.2,0-2.3-0.2-3.3-0.6c-1.4-0.6-2.6-1.5-3.4-2.8c-0.7-1.2-1.2-2.6-1.3-4.2h19.4l0-0.5c0.1-0.7,0.1-1.6,0.1-1.6
			c0-3.4-1.1-6.6-3.2-8.8C77.4,61,76.2,60.1,74.8,59.5z M64.7,64.8c1.4-1.2,3.3-1.9,5.3-1.9c1.9,0,3.6,0.7,4.8,1.9
			c1.1,1.1,1.8,2.5,1.9,4.1H62.3C62.6,67.3,63.4,65.9,64.7,64.8z"/>
		<path d="M105,60.4c-1.5-1-3.4-1.5-5.6-1.5c-1.9,0-3.7,0.5-5.1,1.3c-0.8,0.5-1.5,1.1-2.1,1.8v-2.8h-4.7v25.1h4.7V69.4
			c0-1.9,0.7-3.4,1.7-4.5c1.1-1.1,2.6-1.7,4.5-1.7c0.9,0,1.7,0.2,2.4,0.4c1.1,0.4,1.9,1.1,2.4,2c0.6,0.9,0.9,2.1,0.9,3.5v15.2h4.6
			V68.4c0-1.4-0.2-2.7-0.6-3.9C107.6,62.8,106.5,61.3,105,60.4z"/>
		<polygon points="115.9,84.3 116.4,84.3 120.6,84.3 120.6,59.2 115.9,59.2 		"/>
		<polygon points="140.4,71 149.2,59.2 143.9,59.2 137.8,67.4 131.8,59.2 126.5,59.2 135.3,71 125.7,84.3 130.9,84.3 137.9,74.7 
			144.8,84.3 150,84.3 		"/>
	</g>
	<g>
		<path class="st0" d="M20.6,46.6c-0.3-0.6-0.6-1.2-0.8-1.8c-0.6-1.9-0.7-3.9-0.3-5.8c0.5-1.9,1.5-3.7,3.1-5.1L54.1,5.6V0L19.8,30.9
			c-1.5,1.3-2.6,2.9-3.4,4.6c-1.2,2.5-1.6,5.3-1.2,8.1c0.4,2.7,1.6,5.4,3.6,7.6l0,0l1.4,1.5l33.9-30.6v-5.6L20.6,46.6z"/>
		<polygon class="st0" points="38.8,52.7 53.8,39.2 54.1,33.3 32.6,52.7 		"/>
	</g>
</g>
</svg>
