<svg viewBox="0 0 1000 204" fill="none" xmlns="http://www.w3.org/2000/svg"><path d="M353.56 0h34.17v51.1h34.7v32.05h-34.7v51.49c0 21.73 11.85 30.48 29.64 30.48h1.69v32.18H412c-23.43 0-58.44-11.57-58.44-60.12V83.15H295.1l21.3-32.05h37.15V0Z" fill="#fff"/><path fill-rule="evenodd" clip-rule="evenodd" d="M111.22 94.38c-7.87-7.84-18.83-12.56-31.12-12.56-12.15 0-22.76 4.72-30.32 12.57-7.56 7.84-12.06 18.79-12.06 31.21 0 12.42 4.5 23.37 12.06 31.21 7.55 7.84 18.16 12.57 30.32 12.57 12.3 0 23.25-4.72 31.12-12.56 7.87-7.84 12.67-18.79 12.67-31.22s-4.8-23.38-12.67-31.22ZM80.1 164.64c-10.45 0-19.99-3.95-26.89-11.11-6.9-7.17-10.73-17.08-10.73-27.92 0-10.84 3.82-20.75 10.73-27.92 6.9-7.16 16.44-11.11 26.9-11.11 10.67 0 20.52 3.97 27.76 11.17 7.26 7.23 11.27 17.11 11.27 27.86 0 10.74-4 20.63-11.27 27.86-7.24 7.2-17.09 11.17-27.77 11.17Z" fill="#fff"/><path fill-rule="evenodd" clip-rule="evenodd" d="M116.59 50.32v11.2c-9.21-8.97-24.01-14.3-41.29-14.3-20.55 0-39.59 8.04-53.6 22.62C7.7 84.41 0 104.23 0 125.61c0 21.38 7.7 41.19 21.7 55.77C35.71 195.96 54.75 204 75.3 204c17.28 0 32.09-5.33 41.29-14.3v11.2h42.48V50.32h-42.48Zm3.6 125.61c-2.34 6.47-7.59 12.3-15.25 16.51-7.66 4.21-17.73 6.81-29.64 6.81-19.88 0-37.51-7.97-50.17-21.16-12.67-13.19-20.37-31.6-20.37-52.48 0-20.88 7.71-39.29 20.37-52.48C37.79 59.94 55.42 51.97 75.3 51.97c11.91 0 21.98 2.59 29.64 6.81 7.66 4.21 12.91 10.04 15.25 16.51l1.15 3.19v-23.4h32.97v141.07h-32.97v-23.4l-1.15 3.18Z" fill="#fff"/><path d="m267.84 122.47-.27-.38 3.17-3.62 58.74 81.87h-43.64l-35.33-49.23-35.33 49.23h-43.65l56.72-78.97-51.87-70.94h43.98l30.1 41.41 28.19-41.06h5.2l-33.28 49.43-32.67-44.96h-32.02l48.32 66.09-53.27 74.18h31.78l37.8-52.68 37.8 52.68h31.79l-52.26-73.05Z" fill="#fff"/><path fill-rule="evenodd" clip-rule="evenodd" d="M513.06 50.53c-42.63 0-74.81 29.36-74.81 75.08v1.07c0 38.47 29.67 70.96 68.08 73.22 24.33 1.43 46.94-3.42 67.43-25.17l-20.61-20.04c-10.44 10.73-20.89 16.37-38.11 16.37-25.13 0-41.5-14.39-42.63-36.98h110.38c.56-5.65.56-11.85.56-11.85 0-39.81-27.95-71.7-70.29-71.7Zm-39.81 59.83c1.41-17.22 18.63-30.77 39.81-30.77 19.48 0 35.57 13.83 35.57 30.77h-75.38Z" fill="#fff"/><path fill-rule="evenodd" clip-rule="evenodd" d="M676.78 51.37c24 0 40.65 10.44 45.45 23.71v-20.6h34.16v142.26h-34.16v-20.6c-4.8 13.27-21.45 23.71-45.45 23.71-40.09 0-71.14-32.18-71.14-74.24 0-42.06 31.05-74.24 71.14-74.24ZM639.8 125.6c0 24.56 17.78 43.19 41.78 43.19 24.27 0 43.2-18.63 43.2-43.19s-18.92-43.19-43.2-43.19c-24 0-41.78 18.63-41.78 43.19Z" fill="#fff"/><path d="M950.32 51.65c-20.33 0-37.83 7.06-46.58 24.84-6.77-15.81-20.04-24.84-39.8-24.84-18.35 0-32.18 9.6-38.11 23.14V54.48h-34.16v142.26h34.16v-81.86c0-19.19 11.57-32.74 27.38-32.74 16.37 0 25.13 12.42 25.13 31.33v83.27h34.16v-81.86c0-19.19 11.58-32.74 27.95-32.74 16.37 0 25.12 12.42 25.12 31.33v83.27H1000v-88.07c0-35-18.07-57.02-49.68-57.02Z" fill="#fff"/></svg>