<svg width="97" height="97" viewBox="0 0 97 97" fill="none" xmlns="http://www.w3.org/2000/svg">
<path d="M48.0414 47.3513C35.5525 39.5757 10.6137 20.0781 10.6137 20.0781C10.6137 20.0781 10.4962 20 10.4571 20H87.4658C87.4658 20 62.0964 39.732 49.8815 47.3513C49.2159 47.742 48.7461 47.7811 48.0414 47.3513Z" fill="black"/>
<path d="M8.61641 79C4.97543 79 2 76.0695 2 72.3966V22.8517C2 22.3047 2.62641 21.953 3.13536 22.2656L46.2007 53.0554C47.9234 54.1494 50.1158 54.1494 51.8384 53.0554L94.9038 22.2656C95.3736 21.953 96 22.3047 96 22.8517V72.3966C96 76.0304 93.0246 79 89.3836 79H8.61641Z" fill="black"/>
</svg>
