<svg viewBox="0 0 24 24" fill="none" xmlns="http://www.w3.org/2000/svg"><path d="M2 6.7c-.05-.79.31-1.37.86-1.9.85-.8 1.67-1.65 2.49-2.47.5-.5 1.22-.42 1.56.2.48.87.94 1.76 1.42 2.64.28.54.55 1.1.85 1.63.28.49.14 1.11-.23 1.48l-.97.97c-.14.14-.19.3-.14.5.18.67.52 1.25.92 1.8a16.1 16.1 0 0 0 3.99 3.89c.47.31.96.62 1.55.7.12.02.3-.03.4-.12.35-.33.68-.68 1.02-1.03.57-.56 1.15-.65 1.85-.24l3.85 2.29c.49.29.67.66.54 1.13-.05.16-.14.33-.26.44l-2.92 2.9c-.44.42-1 .52-1.58.48a9.5 9.5 0 0 1-2.96-.66 18.31 18.31 0 0 1-3.17-1.67 27.25 27.25 0 0 1-6.02-5.73 18.35 18.35 0 0 1-2.17-3.66 9.98 9.98 0 0 1-.87-3.24V6.7Z" fill="#000"/></svg>