<svg viewBox="0 0 24 24" fill="none" xmlns="http://www.w3.org/2000/svg"><g clip-path="url(#a)" fill="#000"><path d="M11.8 15.42a.2.2 0 0 0 .07.04l3.1 2.31c.15.1.3.17.47.22.33.09.56-.02.7-.32.06-.11.1-.23.13-.35l.42-1.97.9-4.24.85-3.99c.04-.2.07-.4.03-.6-.05-.26-.3-.59-.67-.52-.1.02-.2.04-.27.07l-6.6 2.54-5.57 2.15c-.27.1-.53.21-.8.33a.6.6 0 0 0-.31.3c-.07.15-.04.29.1.4.03.02.06.05.1.06l.34.11 3.14.96c.03.01.08 0 .1-.02l.4-.24 7.05-4.44c.07-.04.13-.09.2-.12a.36.36 0 0 1 .27-.02c.07.02.09.08.05.14a.8.8 0 0 1-.12.14l-3.5 3.2-2.5 2.28c-.02.02-.05.05-.05.08l-.12 1.46-.12 1.58-.02.29.12-.02c.23-.05.42-.18.59-.34l1.18-1.14.35-.33Z"/><path d="M23.75 12h-.24v.73l.01 2.08c0 .97-.02 1.94-.1 2.91-.07.83-.18 1.63-.42 2.41a4.2 4.2 0 0 1-1.37 2.09c-.62.5-1.4.82-2.32.99-1.28.24-2.59.3-3.91.31l-3.88.01c-1.26 0-2.51 0-3.77-.02a15.7 15.7 0 0 1-3.35-.36 4.54 4.54 0 0 1-2.42-1.3A4.96 4.96 0 0 1 .8 19.37c-.2-1.04-.29-2.1-.3-3.16l-.02-4.25.02-4.2c.01-1.19.11-2.37.39-3.51.25-1.01.7-1.77 1.33-2.33A4.97 4.97 0 0 1 4.67.8 23.5 23.5 0 0 1 9.04.49h3.4c1.26 0 2.53 0 3.79.02 1.13.01 2.25.11 3.35.35 1.06.23 1.86.68 2.45 1.31A5 5 0 0 1 23.2 4.7c.23 1.26.3 2.54.31 3.83V12h.24-.24.49V8.53a21.42 21.42 0 0 0-.32-3.91 5.5 5.5 0 0 0-1.29-2.77 5.04 5.04 0 0 0-2.7-1.46c-1.14-.25-2.3-.35-3.45-.37C14.97 0 13.7 0 12.44 0h-3.4C7.55 0 6.06.05 4.58.33 3.51.53 2.6.93 1.9 1.56A4.94 4.94 0 0 0 .42 4.13c-.3 1.2-.39 2.41-.4 3.62L0 11.96l.02 4.25c.01 1.08.1 2.17.31 3.25.21 1.1.64 2.02 1.3 2.72a5.04 5.04 0 0 0 2.66 1.44c1.14.26 2.3.36 3.45.37l3.78.02L15.4 24c1.33 0 2.67-.06 4-.31a5.54 5.54 0 0 0 2.53-1.09 4.66 4.66 0 0 0 1.53-2.33c.26-.83.37-1.67.44-2.52.08-.99.1-1.97.1-2.95l-.01-2.08V12h-.24Z"/></g><defs><clipPath id="a"><rect width="24" height="24" fill="#fff"/></clipPath></defs></svg>