<svg viewBox="0 0 24 24" fill="none" xmlns="http://www.w3.org/2000/svg"><g clip-path="url(#a)" fill="#000"><path d="M23.75 12h-.24v.73l.01 2.08c0 .97-.02 1.94-.1 2.91-.07.83-.18 1.63-.42 2.41a4.2 4.2 0 0 1-1.37 2.09c-.62.5-1.4.82-2.32.99-1.28.24-2.59.3-3.91.31l-3.88.01c-1.26 0-2.51 0-3.77-.02a15.7 15.7 0 0 1-3.35-.36 4.54 4.54 0 0 1-2.42-1.3A4.96 4.96 0 0 1 .8 19.37c-.2-1.04-.29-2.1-.3-3.16l-.02-4.25.02-4.2c.01-1.19.11-2.37.39-3.51.25-1.01.7-1.77 1.33-2.33A4.97 4.97 0 0 1 4.67.8 23.5 23.5 0 0 1 9.04.49h3.4c1.26 0 2.53 0 3.79.02 1.13.01 2.25.11 3.35.35 1.06.23 1.86.68 2.45 1.31A5 5 0 0 1 23.2 4.7c.23 1.26.3 2.54.31 3.83V12H24V8.53a21.42 21.42 0 0 0-.32-3.91 5.5 5.5 0 0 0-1.29-2.77 5.04 5.04 0 0 0-2.7-1.46c-1.14-.25-2.3-.35-3.45-.37C14.97 0 13.7 0 12.44 0h-3.4C7.55 0 6.06.05 4.58.33 3.51.53 2.6.93 1.9 1.56A4.94 4.94 0 0 0 .42 4.13c-.3 1.2-.39 2.41-.4 3.62L0 11.96l.02 4.25c.01 1.08.1 2.17.31 3.25.21 1.1.64 2.02 1.3 2.72a5.04 5.04 0 0 0 2.66 1.44c1.14.26 2.3.36 3.45.37l3.78.02L15.4 24c1.33 0 2.67-.06 4-.31a5.54 5.54 0 0 0 2.53-1.09 4.66 4.66 0 0 0 1.53-2.33c.26-.83.37-1.67.44-2.52.08-.99.1-1.97.1-2.95l-.01-2.08V12h-.24Z"/><path d="M18.7 9.28s-.13-.94-.54-1.35c-.52-.54-1.1-.54-1.37-.58-1.92-.14-4.79-.14-4.79-.14s-2.87 0-4.78.14c-.28.03-.86.04-1.38.58-.41.41-.54 1.35-.54 1.35s-.14 1.1-.14 2.2v1.03c0 1.1.14 2.2.14 2.2s.13.94.54 1.35c.52.54 1.2.53 1.51.58 1.09.1 4.65.14 4.65.14s2.87 0 4.79-.14c.27-.03.85-.03 1.37-.58.41-.41.54-1.35.54-1.35s.14-1.1.14-2.2v-1.03c0-1.1-.14-2.2-.14-2.2Zm-7.92 5V9.73L14.52 12l-3.74 2.28Z"/></g><defs><clipPath id="a"><rect width="24" height="24" fill="#fff"/></clipPath></defs></svg>