<?xml version="1.0" standalone="no"?>
<!DOCTYPE svg PUBLIC "-//W3C//DTD SVG 20010904//EN"
 "http://www.w3.org/TR/2001/REC-SVG-20010904/DTD/svg10.dtd">
<svg version="1.0" xmlns="http://www.w3.org/2000/svg"
 width="700.000000pt" height="700.000000pt" viewBox="0 0 700.000000 700.000000"
 preserveAspectRatio="xMidYMid meet">
<metadata>
Created by potrace 1.14, written by Peter Selinger 2001-2017
</metadata>
<g transform="translate(0.000000,700.000000) scale(0.100000,-0.100000)"
fill="#000000" stroke="none">
<path d="M3138 6945 c-2 -1 -46 -6 -100 -9 -53 -4 -105 -8 -115 -11 -11 -2
-46 -6 -79 -9 -217 -23 -572 -121 -824 -228 -784 -332 -1434 -999 -1755 -1803
-15 -38 -33 -83 -40 -100 -27 -63 -116 -364 -130 -438 -3 -12 -9 -44 -15 -72
-18 -88 -20 -99 -26 -135 -3 -19 -7 -42 -9 -50 -2 -8 -7 -41 -10 -73 -4 -32
-8 -67 -10 -77 -12 -62 -20 -235 -20 -435 0 -306 10 -425 60 -710 17 -98 103
-433 115 -450 4 -5 10 -23 14 -39 16 -66 72 -203 159 -387 344 -731 957 -1317
1697 -1622 172 -70 407 -145 540 -171 124 -24 192 -36 230 -41 25 -3 56 -8 70
-10 123 -21 581 -28 745 -12 140 14 337 47 440 73 55 14 109 27 119 29 100 22
357 124 491 196 147 77 338 212 404 283 14 14 28 26 32 26 4 0 7 -102 7 -227
0 -126 1 -235 1 -243 1 -14 108 -15 936 -15 l935 0 0 3312 0 3313 -70 0 c-38
0 -414 0 -835 0 -421 0 -810 0 -865 0 l-100 0 -2 -245 -3 -244 -42 39 c-288
266 -739 466 -1230 546 -71 11 -92 14 -148 19 -33 3 -78 8 -100 11 -41 6 -462
14 -467 9z m585 -1529 c75 -7 91 -9 147 -21 14 -3 43 -7 65 -11 22 -3 87 -19
145 -35 654 -187 1139 -687 1309 -1351 16 -63 32 -141 36 -174 4 -32 10 -68
13 -79 2 -11 6 -110 7 -220 3 -230 -14 -375 -66 -561 -153 -552 -537 -999
-1052 -1224 -134 -59 -338 -119 -457 -135 -24 -4 -47 -8 -50 -10 -10 -6 -205
-18 -300 -18 -786 0 -1455 462 -1733 1198 -34 90 -81 258 -91 328 -7 41 -12
76 -25 157 -12 73 -6 480 7 550 7 30 14 71 17 90 52 312 218 662 429 902 118
135 209 215 356 313 212 142 467 243 708 281 19 3 44 7 56 10 11 2 62 7 111
10 50 4 91 8 93 9 5 4 197 -3 275 -9z"/>
</g>
</svg>
