<svg width="1024" height="1024" viewBox="0 0 1024 1024" fill="none" xmlns="http://www.w3.org/2000/svg">
<g clip-path="url(#clip0_324_2204)">
<path d="M997.12 27.4679H776.96H750.08V54.3479V99.7879C690.56 42.1879 595.84 7.62793 484.48 7.62793C352 7.62793 229.76 59.4679 139.52 153.548C49.28 246.988 0 374.348 0 511.948C0 649.548 49.28 776.908 139.52 870.988C229.76 965.068 352 1016.91 484.48 1016.91C595.84 1016.91 691.2 982.348 750.08 924.748V970.188V997.068H776.96H997.12H1024V970.188V53.7079V27.4679H997.12ZM716.16 712.908C665.6 763.468 595.2 793.548 515.84 793.548C437.76 793.548 369.28 762.828 320.64 712.908C272 662.348 242.56 591.948 242.56 511.948C242.56 431.948 271.36 361.548 320 310.988C369.28 260.428 437.12 230.348 515.84 230.348C595.2 230.348 665.6 260.428 716.16 310.988C766.72 361.548 797.44 431.948 797.44 511.948C797.44 591.948 766.72 662.348 716.16 712.908Z" fill="#FF6633"/>
</g>
<defs>
<clipPath id="clip0_324_2204">
<rect width="1024" height="1024" fill="white"/>
</clipPath>
</defs>
</svg>
